<svg xmlns="http://www.w3.org/2000/svg" viewBox="0 0 142 142"><title>Asset 1</title><g id="Layer_2" data-name="Layer 2"><g id="Layer_1-2" data-name="Layer 1"><path d="M91.81,98.94h0Q92.89,99,94,99a36.68,36.68,0,0,0,13.6-2.45A36.68,36.68,0,0,1,94,99Q92.89,99,91.81,98.94Z"/><path d="M59.25,31.64c.36.36.7.73,1,1.12C60,32.37,59.61,32,59.25,31.64Z"/><path d="M48,99a36.68,36.68,0,0,1-13.6-2.45A36.68,36.68,0,0,0,48,99q1.11,0,2.19-.06h0Q49.11,99,48,99Z"/><path d="M57.4,116.55A36.68,36.68,0,0,0,71,119a36.68,36.68,0,0,0,13.6-2.45A36.68,36.68,0,0,1,71,119,36.68,36.68,0,0,1,57.4,116.55Z"/><path d="M105.25,31.64c.36.36.7.73,1,1.12C106,32.37,105.61,32,105.25,31.64Z"/><path d="M71,0a71,71,0,1,0,71,71A71,71,0,0,0,71,0Zm46.7,88.6c0,4.25-3,8.06-8.27,10.44A38.74,38.74,0,0,1,94,102c-.41,0-.81,0-1.22,0l1.68,5.21.14.47v0l.1.2v.71c0,4.25-3,8.06-8.27,10.44A38.74,38.74,0,0,1,71,122a38.74,38.74,0,0,1-15.43-3l0,0h0c-7.14-3.4-8.21-8-8.21-10.41a3.33,3.33,0,0,1,.1-.84v-.13l.14-.45L49.22,102c-.41,0-.81,0-1.22,0a38.74,38.74,0,0,1-15.43-3l0,0h0c-7.14-3.4-8.21-8-8.21-10.41a3.33,3.33,0,0,1,.1-.84v-.13l.14-.45L34.55,56A18.86,18.86,0,1,1,66.9,42.8c0,.56,0,1.12-.08,1.68a18.44,18.44,0,0,1,8.36,0c-.05-.56-.08-1.12-.08-1.68A18.9,18.9,0,1,1,107.45,56l10,31.15.14.47v0l.1.2Z"/><path d="M50.19,98.94,57.55,76a18.77,18.77,0,0,1,6.1-30.55,15.71,15.71,0,0,0,.25-2.68,15.88,15.88,0,0,0-.32-3.18A15.48,15.48,0,0,0,62,35.28a15.9,15.9,0,0,0-1.7-2.52c-.33-.39-.67-.76-1-1.12A15.93,15.93,0,0,0,34,35.28a15.5,15.5,0,0,0-1.61,4.34,15.18,15.18,0,0,0-.33,3.18A15.71,15.71,0,0,0,38,55.1l-10.6,33a.62.62,0,0,1,0,.25.66.66,0,0,0-.05.25,7,7,0,0,0,2.6,5.18q.51.45,1.11.9A18.3,18.3,0,0,0,33.8,96.3c.19.09.4.16.6.25A36.68,36.68,0,0,0,48,99Q49.11,99,50.19,98.94Z"/><path d="M89.9,62.8A18.7,18.7,0,0,1,84.45,76l7.36,22.91Q92.89,99,94,99a36.68,36.68,0,0,0,13.6-2.45c.2-.09.41-.16.6-.25A16.71,16.71,0,0,0,111,94.72a12.77,12.77,0,0,0,1.11-.9,7.08,7.08,0,0,0,2.6-5.22,1.2,1.2,0,0,1-.09-.29,1.7,1.7,0,0,1,0-.21L104,55.1a15.71,15.71,0,0,0,5.9-12.3,15.88,15.88,0,0,0-.32-3.18,15.48,15.48,0,0,0-1.6-4.34,15.9,15.9,0,0,0-1.7-2.52c-.33-.39-.67-.76-1-1.12A15.93,15.93,0,0,0,80,35.28a15.5,15.5,0,0,0-1.61,4.34,15.18,15.18,0,0,0-.33,3.18,15.71,15.71,0,0,0,.25,2.68A18.84,18.84,0,0,1,89.9,62.8Z"/><path d="M82.25,51.64c.36.36.7.73,1,1.12C83,52.37,82.61,52,82.25,51.64Z"/><path d="M91.61,108.31a1.7,1.7,0,0,1,0-.21L81,75.08A15.7,15.7,0,0,0,86.9,62.8a15.88,15.88,0,0,0-.32-3.18A15.48,15.48,0,0,0,85,55.28a15.9,15.9,0,0,0-1.7-2.52c-.33-.39-.67-.76-1-1.12a16.19,16.19,0,0,0-6.48-3.91,15.88,15.88,0,0,0-9.55,0A16.17,16.17,0,0,0,57,55.28a15.5,15.5,0,0,0-1.61,4.34,15.18,15.18,0,0,0-.33,3.18A15.7,15.7,0,0,0,61,75.08l-10.58,33a.62.62,0,0,1,0,.25.66.66,0,0,0-.05.25,7,7,0,0,0,2.6,5.18q.51.45,1.11.9a18.3,18.3,0,0,0,2.79,1.62c.19.09.4.16.6.25A36.68,36.68,0,0,0,71,119a36.68,36.68,0,0,0,13.6-2.45c.2-.09.41-.16.6-.25A16.71,16.71,0,0,0,88,114.72a12.77,12.77,0,0,0,1.11-.9,7.08,7.08,0,0,0,2.6-5.22A1.2,1.2,0,0,1,91.61,108.31Z"/></g></g></svg>